<svg width="108" height="15" viewBox="0 0 713 101" fill="none" xmlns="http://www.w3.org/2000/svg">
<g clip-path="url(#clip0_265_87)">
<path d="M3.91 82.22C0.14 74.12 0 63.65 0 50.39C0 37.13 0.14 26.66 3.91 18.57C8.93 7.68 19.54 0 34.9 0C53 0 67.42 11.45 67.42 30.57C67.4174 31.3091 67.1226 32.0173 66.5999 32.5399C66.0773 33.0626 65.3691 33.3574 64.63 33.36H50.39C49.6214 33.3655 48.8789 33.0816 48.3101 32.5646C47.7412 32.0477 47.3878 31.3356 47.32 30.57C47.32 24.15 42.43 19.68 34.9 19.68C28.2 19.68 24.01 22.06 21.9 26.38C19.9 30.43 19.9 41.46 19.9 50.38C19.9 59.3 19.9 70.38 21.9 74.38C23.99 78.71 28.18 81.08 34.9 81.08C42.9 81.08 48.02 77.45 48.02 68.38V65.61C48.0317 65.4231 48.0035 65.2359 47.9373 65.0607C47.8711 64.8855 47.7684 64.7264 47.636 64.594C47.5036 64.4616 47.3445 64.3589 47.1693 64.2927C46.9941 64.2265 46.8069 64.1983 46.62 64.21H37.41C36.67 64.21 35.9604 63.9161 35.4372 63.3928C34.9139 62.8696 34.62 62.16 34.62 61.42V48.16C34.62 47.42 34.9139 46.7104 35.4372 46.1872C35.9604 45.6639 36.67 45.37 37.41 45.37H64.63C65.37 45.37 66.0796 45.6639 66.6028 46.1872C67.1261 46.7104 67.42 47.42 67.42 48.16V68.26C67.42 90.46 53.32 100.79 34.9 100.79C19.54 100.79 8.93 93.11 3.91 82.22Z" fill="#080808"/>
<path d="M75.4302 97.15C75.492 96.1983 75.6838 95.2596 76.0002 94.36L100.42 3.62998C100.548 3.02703 100.884 2.48795 101.368 2.10622C101.852 1.72448 102.454 1.52416 103.07 1.53998H121.77C122.388 1.52374 122.991 1.72371 123.477 2.10532C123.963 2.48693 124.3 3.02621 124.43 3.62998L148.71 94.36C149.029 95.2585 149.217 96.198 149.27 97.15C149.27 98.41 148.27 99.25 146.48 99.25H131.82C131.204 99.2615 130.602 99.0583 130.119 98.6752C129.635 98.2921 129.3 97.753 129.17 97.15L124.84 82.78C124.43 81.52 124.01 80.68 122.75 80.68H101.53C100.28 80.68 99.8602 81.38 99.4402 82.78L95.5302 97.15C95.4004 97.753 95.0652 98.2921 94.5818 98.6752C94.0984 99.0583 93.4969 99.2615 92.8802 99.25H78.2202C76.4102 99.25 75.4302 98.41 75.4302 97.15ZM119.82 59.61L113.26 26.8C113.12 25.97 112.98 25.55 112.56 25.55H112C111.58 25.55 111.44 25.97 111.3 26.8L104.74 59.61C104.6 60.61 105.02 61.14 105.86 61.14H118.7C119.54 61.14 120 60.58 119.82 59.61V59.61Z" fill="#080808"/>
<path d="M169.38 96.46V22.46C169.392 22.2731 169.364 22.0858 169.298 21.9107C169.231 21.7355 169.129 21.5764 168.996 21.444C168.864 21.3116 168.705 21.2089 168.53 21.1427C168.354 21.0764 168.167 21.0483 167.98 21.06H150.53C149.791 21.0573 149.083 20.7626 148.56 20.2399C148.038 19.7172 147.743 19.0091 147.74 18.27V4.26998C147.743 3.53084 148.038 2.82272 148.56 2.30006C149.083 1.77741 149.791 1.48262 150.53 1.47998H207.77C208.509 1.48262 209.217 1.77741 209.74 2.30006C210.263 2.82272 210.558 3.53084 210.56 4.26998V18.27C210.558 19.0091 210.263 19.7172 209.74 20.2399C209.217 20.7626 208.509 21.0573 207.77 21.06H190.32C190.133 21.0483 189.946 21.0764 189.771 21.1427C189.596 21.2089 189.437 21.3116 189.304 21.444C189.172 21.5764 189.069 21.7355 189.003 21.9107C188.937 22.0858 188.909 22.2731 188.92 22.46V96.46C188.918 97.1991 188.623 97.9072 188.1 98.4299C187.577 98.9525 186.869 99.2473 186.13 99.25H172.13C171.398 99.2369 170.7 98.9375 170.186 98.416C169.672 97.8944 169.383 97.1923 169.38 96.46V96.46Z" fill="#080808"/>
<path d="M224.05 96.46V4.33004C224.053 3.5909 224.347 2.88278 224.87 2.36012C225.393 1.83747 226.101 1.54267 226.84 1.54004H277.52C278.259 1.54267 278.967 1.83747 279.49 2.36012C280.013 2.88278 280.307 3.5909 280.31 4.33004V18.33C280.307 19.0692 280.013 19.7773 279.49 20.3C278.967 20.8226 278.259 21.1174 277.52 21.12H245C244.813 21.1083 244.626 21.1365 244.451 21.2027C244.275 21.2689 244.116 21.3717 243.984 21.5041C243.852 21.6365 243.749 21.7956 243.683 21.9707C243.616 22.1459 243.588 22.3331 243.6 22.52V39.23C243.59 39.4161 243.619 39.6023 243.686 39.7762C243.753 39.9502 243.856 40.108 243.988 40.2393C244.12 40.3706 244.279 40.4724 244.453 40.5381C244.628 40.6037 244.814 40.6316 245 40.62H276.4C277.139 40.6227 277.847 40.9175 278.37 41.4401C278.893 41.9628 279.187 42.6709 279.19 43.41V57.41C279.187 58.1501 278.893 58.8593 278.371 59.3835C277.848 59.9078 277.14 60.2048 276.4 60.21H245C244.814 60.1968 244.627 60.2236 244.451 60.2887C244.276 60.3537 244.117 60.4555 243.984 60.5871C243.852 60.7188 243.749 60.8773 243.683 61.052C243.616 61.2267 243.588 61.4136 243.6 61.6V78.31C243.588 78.4969 243.616 78.6842 243.683 78.8594C243.749 79.0345 243.852 79.1936 243.984 79.326C244.116 79.4584 244.275 79.5611 244.451 79.6274C244.626 79.6936 244.813 79.7218 245 79.71H278.09C278.829 79.7127 279.537 80.0075 280.06 80.5301C280.583 81.0528 280.877 81.7609 280.88 82.5V96.5C280.877 97.2392 280.583 97.9473 280.06 98.47C279.537 98.9926 278.829 99.2874 278.09 99.29H226.84C226.471 99.2887 226.105 99.2144 225.765 99.0712C225.424 98.928 225.115 98.7189 224.856 98.4558C224.597 98.1928 224.392 97.881 224.253 97.5385C224.115 97.1959 224.046 96.8294 224.05 96.46V96.46Z" fill="#080808"/>
<path d="M296 96.46V80C295.957 79.3628 296.047 78.7236 296.264 78.1229C296.481 77.5223 296.82 76.973 297.26 76.51L330.48 41.19C335.79 35.6 337.32 32.81 337.32 28.35C337.32 22.9 332.72 18.85 326.71 18.85C320.43 18.85 315.83 23.18 315.83 29.05V31.42C315.822 32.1635 315.52 32.8736 314.989 33.3947C314.459 33.9157 313.744 34.2053 313 34.2H299.76C299.026 34.1895 298.326 33.8913 297.809 33.3695C297.293 32.8476 297.003 32.144 297 31.41V29.17C297 11.59 308.84 0 326.7 0C344.56 0 356.16 11.17 356.16 28.48C356.16 36.99 353.64 43.27 347.5 49.83L321.26 77.61C320.994 77.8086 320.799 78.0871 320.704 78.4048C320.608 78.7224 320.617 79.0624 320.729 79.3747C320.841 79.6869 321.05 79.9551 321.325 80.1396C321.601 80.3242 321.929 80.4155 322.26 80.4H353.5C354.239 80.4026 354.947 80.6974 355.47 81.2201C355.993 81.7427 356.287 82.4509 356.29 83.19V96.46C356.287 97.1991 355.993 97.9073 355.47 98.4299C354.947 98.9526 354.239 99.2474 353.5 99.25H298.78C298.043 99.2447 297.337 98.9488 296.817 98.4264C296.296 97.904 296.003 97.1974 296 96.46V96.46Z" fill="#2C6EF6"/>
<path d="M373.7 82.22C370.07 74.12 369.79 63.65 369.79 50.39C369.79 37.13 370.07 26.66 373.7 18.57C378.59 7.68 388.92 0 404 0C422.57 0 437.23 12 437.23 32C437.225 32.7401 436.928 33.4482 436.404 33.9705C435.879 34.4929 435.17 34.7874 434.43 34.79H420.19C419.42 34.798 418.675 34.5152 418.104 33.998C417.533 33.4809 417.178 32.7674 417.11 32C417.11 24.74 411.95 19.71 403.99 19.71C397.71 19.71 393.66 22.09 391.71 26.41C389.89 30.46 389.71 41.49 389.71 50.41C389.71 59.33 389.85 70.41 391.71 74.41C393.71 78.74 397.71 81.11 403.99 81.11C411.99 81.11 417.11 76.11 417.11 68.83C417.166 68.0546 417.516 67.3299 418.089 66.8039C418.661 66.2779 419.413 65.9903 420.19 66H434.42C435.161 66 435.872 66.2936 436.396 66.8166C436.921 67.3395 437.217 68.0491 437.22 68.79C437.22 88.47 422.84 100.79 403.99 100.79C388.92 100.79 378.59 93.11 373.7 82.22Z" fill="#080808"/>
<path d="M451.6 96.46V4.33004C451.6 3.59009 451.894 2.88044 452.417 2.35721C452.94 1.83398 453.65 1.54004 454.39 1.54004H468.39C469.129 1.54267 469.837 1.83747 470.36 2.36012C470.883 2.88278 471.177 3.5909 471.18 4.33004V39.23C471.168 39.4156 471.196 39.6016 471.262 39.7755C471.328 39.9495 471.43 40.1075 471.561 40.239C471.693 40.3704 471.851 40.4724 472.025 40.5381C472.199 40.6038 472.385 40.6318 472.57 40.62H493.51C493.696 40.6316 493.882 40.6037 494.057 40.5381C494.231 40.4724 494.39 40.3706 494.522 40.2393C494.654 40.108 494.757 39.9502 494.824 39.7762C494.891 39.6023 494.92 39.4161 494.91 39.23V4.33004C494.91 3.59009 495.204 2.88044 495.727 2.35721C496.25 1.83398 496.96 1.54004 497.7 1.54004H511.7C512.44 1.54004 513.15 1.83398 513.673 2.35721C514.196 2.88044 514.49 3.59009 514.49 4.33004V96.46C514.487 97.1992 514.193 97.9073 513.67 98.43C513.147 98.9526 512.439 99.2474 511.7 99.25H497.7C496.961 99.2474 496.253 98.9526 495.73 98.43C495.208 97.9073 494.913 97.1992 494.91 96.46V61.56C494.922 61.3736 494.894 61.1867 494.828 61.012C494.761 60.8373 494.658 60.6788 494.526 60.5471C494.393 60.4155 494.234 60.3137 494.059 60.2487C493.884 60.1836 493.696 60.1568 493.51 60.17H472.53C472.345 60.1583 472.159 60.1862 471.985 60.2519C471.811 60.3176 471.653 60.4196 471.521 60.5511C471.39 60.6826 471.288 60.8406 471.222 61.0145C471.156 61.1885 471.128 61.3745 471.14 61.56V96.46C471.14 97.99 469.14 99.25 467.65 99.25H454.39C453.651 99.2474 452.943 98.9526 452.42 98.43C451.898 97.9073 451.603 97.1992 451.6 96.46V96.46Z" fill="#080808"/>
<path d="M525.58 97.1501C525.639 96.1989 525.827 95.2602 526.14 94.3601L550.57 3.63005C550.698 3.0271 551.033 2.48803 551.517 2.10629C552.001 1.72456 552.604 1.52424 553.22 1.54005H571.93C572.546 1.52618 573.147 1.72723 573.631 2.10864C574.114 2.49005 574.45 3.02801 574.58 3.63005L598.87 94.3601C599.183 95.2602 599.371 96.1989 599.43 97.1501C599.43 98.4101 598.43 99.2501 596.63 99.2501H582C581.382 99.2639 580.778 99.0618 580.292 98.6785C579.807 98.2952 579.47 97.7548 579.34 97.1501L575 82.7801C574.58 81.5201 574.16 80.6801 572.9 80.6801H551.69C550.43 80.6801 550.01 81.3801 549.59 82.7801L545.68 97.1501C545.552 97.7539 545.217 98.2942 544.734 98.6776C544.25 99.061 543.647 99.2635 543.03 99.2501H528.37C526.56 99.2501 525.58 98.4101 525.58 97.1501ZM570 59.6101L563.41 26.8001C563.27 25.9701 563.13 25.5501 562.71 25.5501H562.16C561.74 25.5501 561.6 25.9701 561.46 26.8001L554.9 59.6101C554.76 60.6101 555.18 61.1401 556.01 61.1401H568.85C569.69 61.1401 570.11 60.5801 570 59.6101Z" fill="#080808"/>
<path d="M610.6 96.46V4.33004C610.6 3.59009 610.894 2.88044 611.417 2.35721C611.941 1.83398 612.65 1.54004 613.39 1.54004H627.39C628.129 1.54267 628.837 1.83747 629.36 2.36012C629.883 2.88278 630.177 3.5909 630.18 4.33004V96.46C630.177 97.1992 629.883 97.9073 629.36 98.43C628.837 98.9526 628.129 99.2474 627.39 99.25H613.39C612.651 99.2474 611.943 98.9526 611.42 98.43C610.898 97.9073 610.603 97.1992 610.6 96.46V96.46Z" fill="#080808"/>
<path d="M649.68 96.46V4.33001C649.683 3.58914 649.979 2.87952 650.504 2.35658C651.029 1.83363 651.739 1.54001 652.48 1.54001H669.08C669.862 1.49426 670.635 1.71875 671.271 2.1758C671.906 2.63285 672.365 3.29462 672.57 4.05001L691.7 61.28C691.98 62.12 692.96 61.84 692.96 61V4.33001C692.96 3.59006 693.254 2.88041 693.777 2.35718C694.301 1.83396 695.01 1.54001 695.75 1.54001H709.75C710.489 1.54265 711.197 1.83744 711.72 2.3601C712.243 2.88275 712.538 3.59087 712.54 4.33001V96.46C712.538 97.1992 712.243 97.9073 711.72 98.4299C711.197 98.9526 710.489 99.2474 709.75 99.25H693.23C692.429 99.331 691.624 99.1417 690.942 98.7123C690.261 98.2828 689.743 97.6379 689.47 96.88L670.47 43.69C670.19 42.85 669.22 43.13 669.22 43.97V96.46C669.215 97.2001 668.918 97.9082 668.394 98.4306C667.869 98.9529 667.16 99.2474 666.42 99.25H652.48C651.74 99.2474 651.031 98.9529 650.507 98.4306C649.982 97.9082 649.685 97.2001 649.68 96.46V96.46Z" fill="#080808"/>
</g>
<defs>
<clipPath id="clip0_265_87">
<rect width="712.5" height="100.79" fill="white"/>
</clipPath>
</defs>
</svg>
