<svg width="41" height="40" viewBox="0 0 41 40" fill="none" xmlns="http://www.w3.org/2000/svg">
<path opacity="0.4" d="M20.4999 28.9167C22.0002 28.9167 23.2165 27.7004 23.2165 26.2001C23.2165 24.6997 22.0002 23.4834 20.4999 23.4834C18.9995 23.4834 17.7832 24.6997 17.7832 26.2001C17.7832 27.7004 18.9995 28.9167 20.4999 28.9167Z" fill="#6B7280"/>
<path d="M28.2502 15.7334H12.7502C5.91683 15.7334 3.8335 17.8167 3.8335 24.6501V27.7501C3.8335 34.5834 5.91683 36.6667 12.7502 36.6667H28.2502C35.0835 36.6667 37.1668 34.5834 37.1668 27.7501V24.6501C37.1668 17.8167 35.0835 15.7334 28.2502 15.7334ZM20.5002 31.2334C17.7168 31.2334 15.4668 28.9667 15.4668 26.2001C15.4668 23.4334 17.7168 21.1667 20.5002 21.1667C23.2835 21.1667 25.5335 23.4334 25.5335 26.2001C25.5335 28.9667 23.2835 31.2334 20.5002 31.2334Z" fill="#6B7280"/>
<path opacity="0.4" d="M12.3665 15.7499V13.7999C12.3665 8.91658 13.7499 5.66659 20.4999 5.66659C27.2499 5.66659 28.6332 8.91658 28.6332 13.7999V15.7499C29.4832 15.7666 30.2499 15.7999 30.9665 15.8999V13.7999C30.9665 9.29992 29.8832 3.33325 20.4999 3.33325C11.1165 3.33325 10.0332 9.29992 10.0332 13.7999V15.8833C10.7332 15.7999 11.5165 15.7499 12.3665 15.7499Z" fill="#6B7280"/>
</svg>
