<svg width="41" height="40" viewBox="0 0 41 40" fill="none" xmlns="http://www.w3.org/2000/svg">
<path opacity="0.4" d="M32.1668 14.9999C32.1668 17.4166 31.4502 19.6333 30.2168 21.4833C28.4168 24.1499 25.5668 26.0333 22.2502 26.5166C21.6835 26.6166 21.1002 26.6666 20.5002 26.6666C19.9002 26.6666 19.3168 26.6166 18.7502 26.5166C15.4335 26.0333 12.5835 24.1499 10.7835 21.4833C9.55016 19.6333 8.8335 17.4166 8.8335 14.9999C8.8335 8.54992 14.0502 3.33325 20.5002 3.33325C26.9502 3.33325 32.1668 8.54992 32.1668 14.9999Z" fill="#6B7280"/>
<path d="M35.9165 30.7833L33.1665 31.4333C32.5498 31.5833 32.0665 32.05 31.9331 32.6667L31.3498 35.1167C31.0331 36.45 29.3331 36.85 28.4498 35.8L20.4998 26.6667L12.5498 35.8167C11.6665 36.8667 9.96647 36.4667 9.64981 35.1333L9.06647 32.6833C8.91647 32.0667 8.43314 31.5833 7.83314 31.45L5.08314 30.8C3.81647 30.5 3.36647 28.9167 4.28314 28L10.7831 21.5C12.5831 24.1667 15.4331 26.05 18.7498 26.5334C19.3165 26.6334 19.8998 26.6834 20.4998 26.6834C21.0998 26.6834 21.6831 26.6334 22.2498 26.5334C25.5665 26.05 28.4165 24.1667 30.2165 21.5L36.7165 28C37.6331 28.9 37.1831 30.4833 35.9165 30.7833Z" fill="#6B7280"/>
<path d="M21.4668 9.96675L22.4501 11.9334C22.5835 12.2001 22.9334 12.4667 23.2501 12.5167L25.0335 12.8167C26.1668 13.0001 26.4334 13.8334 25.6168 14.6501L24.2334 16.0334C24.0001 16.2667 23.8668 16.7167 23.9501 17.0501L24.3501 18.7667C24.6668 20.1167 23.9501 20.65 22.7501 19.9334L21.0835 18.9501C20.7835 18.7667 20.2834 18.7667 19.9834 18.9501L18.3168 19.9334C17.1168 20.6334 16.4001 20.1167 16.7168 18.7667L17.1168 17.0501C17.1835 16.7334 17.0668 16.2667 16.8335 16.0334L15.4501 14.6501C14.6335 13.8334 14.9001 13.0167 16.0335 12.8167L17.8168 12.5167C18.1168 12.4667 18.4668 12.2001 18.6001 11.9334L19.5834 9.96675C20.0668 8.90008 20.9335 8.90008 21.4668 9.96675Z" fill="#6B7280"/>
</svg>
