<svg width="44" height="31" viewBox="0 0 44 31" fill="none" xmlns="http://www.w3.org/2000/svg">
<path fill-rule="evenodd" clip-rule="evenodd" d="M0 11.0462C0 5.08148 4.83533 0.246155 10.8 0.246155H40.7077C42.0842 0.246155 43.2 1.362 43.2 2.73846C43.2 4.11493 42.0842 5.23077 40.7077 5.23077H10.8C7.58825 5.23077 4.98462 7.83441 4.98462 11.0462C4.98462 14.2579 7.58825 16.8615 10.8 16.8615H32.4C33.7765 16.8615 34.8923 17.9774 34.8923 19.3538C34.8923 20.7303 33.7765 21.8462 32.4 21.8462H10.8C4.83533 21.8462 0 17.0108 0 11.0462Z" fill="#D1D5DB"/>
<path fill-rule="evenodd" clip-rule="evenodd" d="M2.4925 25.1692L32.4002 25.1691C35.6119 25.1691 38.2156 22.5655 38.2156 19.3538C38.2156 16.142 35.6119 13.5384 32.4002 13.5384L10.8002 13.5384C9.42373 13.5384 8.30789 12.4225 8.30789 11.0461C8.30789 9.66959 9.42373 8.55375 10.8002 8.55375L32.4002 8.55375C38.3649 8.55375 43.2002 13.3891 43.2002 19.3538C43.2002 25.3184 38.3649 30.1538 32.4002 30.1538L2.4925 30.1538C1.11604 30.1538 0.000194647 29.038 0.000190953 27.6615C0.000187258 26.285 1.11603 25.1692 2.4925 25.1692Z" fill="#D1D5DB"/>
</svg>
