<?xml version="1.0" encoding="UTF-8"?>
<svg width="520px" height="154px" viewBox="0 0 520 154" version="1.1" xmlns="http://www.w3.org/2000/svg" xmlns:xlink="http://www.w3.org/1999/xlink">
    <!-- Generator: Sketch 63.1 (92452) - https://sketch.com -->
    <title>STAS2</title>
    <desc>Created with Sketch.</desc>
    <g id="Page-1" stroke="none" stroke-width="1" fill="none" fill-rule="evenodd">
        <g id="STAS-Logo" transform="translate(-700.000000, -699.000000)" fill="#ffffff">
            <g id="STAS2" transform="translate(700.000000, 699.000000)">
                <path d="M213.68,127.37 C222.26,127.37 229.41,125.03 234.87,120.22 C239.81,116.06 242.28,110.21 242.28,102.54 C242.28,96.56 241.24,92.27 238.64,88.24 C235,82.52 228.89,78.23 212.64,70.56 C197.17,63.28 193.01,58.99 193.01,50.41 C193.01,46.12 194.44,42.09 196.78,39.1 C199.9,35.46 204.32,33.64 210.56,33.64 C219.01,33.64 225.64,36.89 229.28,42.87 C231.36,46.38 232.4,50.15 232.92,56.52 L237.21,56.52 L237.99,30.91 C234.48,32.21 232.14,32.86 230.19,32.86 C228.89,32.86 227.33,32.6 225.38,32.21 C217.19,30.26 214.98,30 210.04,30 C202.24,30 196.39,31.95 191.45,36.24 C186.12,40.92 183.26,47.42 183.26,55.09 C183.26,61.33 185.21,66.4 188.98,70.43 C192.62,74.33 196.65,76.8 207.7,82.13 C227.07,91.49 231.88,96.43 231.88,106.7 C231.88,117.36 224.86,123.6 213.03,123.6 C204.45,123.6 197.69,121 193.53,116.19 C190.02,112.03 188.72,107.87 188.2,99.81 L183.91,99.81 L183,126.07 C187.55,125.16 189.89,124.77 191.97,124.77 C193.27,124.77 194.7,124.9 196.26,125.16 C205.36,126.98 208.61,127.37 213.68,127.37 Z M319.62,125.81 L319.62,122.56 C314.42,122.56 311.04,122.04 309.74,120.87 C307.953091,119.466 307.419339,117.059474 307.40052,109.713232 L307.4,34.68 C330.8,34.94 334.44,37.93 337.82,59.12 L341.98,58.86 L339.64,31.56 L263.2,31.56 L260.86,58.86 L265.02,59.12 C268.27,37.93 272.04,34.94 295.31,34.68 L295.31,109.3 C295.31,116.58 294.92,119.18 293.23,120.61 C291.93,121.91 288.81,122.56 283.22,122.56 L283.22,125.81 L319.62,125.81 Z M377.85,125.81 L377.85,122.56 C370.31,122.3 366.93,120.22 366.93,115.54 C366.93,113.07 367.84,109.04 369.4,104.88 L373.56,93.18 L409.83,93.18 L415.29,109.56 C416.33,112.81 416.85,115.41 416.85,116.97 C416.85,120.74 414.12,122.3 407.49,122.56 L407.49,125.81 L441.03,125.81 L441.03,122.56 C433.49,122.3 431.02,119.83 427.38,109.17 L399.82,30.65 L391.76,31.56 L364.07,104.88 C359.13,118.01 354.84,122.56 347.43,122.56 L347.43,125.81 L377.85,125.81 Z M408.14,88.37 L375.38,88.37 L392.28,42.87 L408.14,88.37 Z M490.42,127.37 C499,127.37 506.15,125.03 511.61,120.22 C516.55,116.06 519.02,110.21 519.02,102.54 C519.02,96.56 517.98,92.27 515.38,88.24 C511.74,82.52 505.63,78.23 489.38,70.56 C473.91,63.28 469.75,58.99 469.75,50.41 C469.75,46.12 471.18,42.09 473.52,39.1 C476.64,35.46 481.06,33.64 487.3,33.64 C495.75,33.64 502.38,36.89 506.02,42.87 C508.1,46.38 509.14,50.15 509.66,56.52 L513.95,56.52 L514.73,30.91 C511.22,32.21 508.88,32.86 506.93,32.86 C505.63,32.86 504.07,32.6 502.12,32.21 C493.93,30.26 491.72,30 486.78,30 C478.98,30 473.13,31.95 468.19,36.24 C462.86,40.92 460,47.42 460,55.09 C460,61.33 461.95,66.4 465.72,70.43 C469.36,74.33 473.39,76.8 484.44,82.13 C503.81,91.49 508.62,96.43 508.62,106.7 C508.62,117.36 501.6,123.6 489.77,123.6 C481.19,123.6 474.43,121 470.27,116.19 C466.76,112.03 465.46,107.87 464.94,99.81 L460.65,99.81 L459.74,126.07 C464.29,125.16 466.63,124.77 468.71,124.77 C470.01,124.77 471.44,124.9 473,125.16 C482.1,126.98 485.35,127.37 490.42,127.37 Z" id="STAS" fill-rule="nonzero"></path>
                <g id="Group-Copy-2">
                    <path d="M77,0 C119.526289,0 154,34.4737105 154,77 C154,119.526289 119.526289,154 77,154 C34.4737105,154 0,119.526289 0,77 C0,34.4737105 34.4737105,0 77,0 Z M77,12.6644737 C41.4681199,12.6644737 12.6644737,41.4681199 12.6644737,77 C12.6644737,112.53188 41.4681199,141.335526 77,141.335526 C112.53188,141.335526 141.335526,112.53188 141.335526,77 C141.335526,41.4681199 112.53188,12.6644737 77,12.6644737 Z M77,15.7039474 C110.853225,15.7039474 138.296053,43.1467749 138.296053,77 C138.296053,110.853225 110.853225,138.296053 77,138.296053 C43.1467749,138.296053 15.7039474,110.853225 15.7039474,77 C15.7039474,43.1467749 43.1467749,15.7039474 77,15.7039474 Z M98.0902337,39.5131579 C84.7024164,39.7504848 69.4982915,41.0799176 52.4778589,43.4954227 L52.4778589,43.4954227 L51.6710526,51.9728198 L51.9905032,51.9056311 C55.6697392,51.1427093 61.348072,50.3304947 69.0273233,49.4708312 C69.532074,51.514256 70.2057374,54.7986188 71.0463262,59.3279423 C63.7810954,60.2470812 58.079797,61.0636466 53.9424309,61.7776385 L53.9424309,61.7776385 L53.3363326,70.2550356 L54.0772981,70.1384998 C61.9260983,68.9064433 68.0202306,68.0261497 72.3578832,67.4976189 C72.7950688,70.1182709 73.2501394,73.5574997 73.7211076,77.8132938 C69.5161764,78.2215765 63.882443,78.9033885 56.8179202,79.8567186 L56.8179202,79.8567186 L56.0111139,88.3321044 L57.1591498,88.1749659 C63.6257988,87.2944262 69.4313889,86.5823214 74.577594,86.0352628 C75.4857479,95.737508 75.9746009,105.236617 76.042166,114.53058 L76.042166,114.53058 L85.7794829,115.5 L85.743898,113.514477 C85.5463975,103.616788 85.0551458,94.1679828 84.2652308,85.166405 C90.2526871,84.68974 96.005653,84.4524131 101.522141,84.4524131 L101.522141,84.4524131 L102.328947,76.0775895 L101.107144,76.1029767 C94.6281537,76.2469446 88.7457993,76.52799 83.4584245,76.944436 L83.4584245,76.944436 L82.1965477,66.4256254 L83.7509038,66.2820609 C88.9140154,65.8204568 93.8963225,65.5282445 98.696332,65.403913 L98.696332,65.403913 L99.3024303,57.0290894 L96.9622062,57.137402 C91.5166443,57.405255 86.1756824,57.7787809 80.9366581,58.2539375 C80.2629948,54.2374815 79.6072163,51.0194897 78.9673355,48.6039847 C85.493325,48.1273196 91.5980266,47.8879815 97.2834274,47.8879815 L97.2834274,47.8879815 Z" id="Combined-Shape"></path>
                </g>
            </g>
        </g>
    </g>
</svg>